<?xml version="1.0"?><svg version="1.2" baseProfile="tiny-ps" viewBox="0 0 50 50" xmlns="http://www.w3.org/2000/svg" xmlns:xlink="http://www.w3.org/1999/xlink"><title>YourOnly.One</title><g><g fill="#f9f8fe" transform="matrix(.1 0 0 -.1 0 50)"><path d="M0 250V0h500v500H0V250z"/></g><g fill="#d1c9f4" transform="matrix(.1 0 0 -.1 0 50)"><path d="M0 250V0h500v500H0V250zm303 189 38-10 35-31c40-36 59-69 69-119l7-36-12-42-11-42-36-40-35-39-54-16-54-15-53 15-52 15-31 33c-18 18-37 44-44 58l-13 25v110l15 30c23 43 70 85 114 100 48 17 68 18 117 4zm-34-91c-19-28-40-54-46-56l-13-4v72h-60v-10c0-5 6-10 14-10h15l3-37 3-38 27-3 26-3 33 40 32 40 9-5c26-16 63 21 52 51l-6 15h-55l-34-52zm-24-88c-7-12 2-30 16-30h9v40h-9c-6 0-13-4-16-10zm2-51-48-19-18 10-18 9-7-6c-11-11-6-20 18-31l24-11 21 6 21 5v-41l-20-6c-11-3-29-4-39 0l-19 6-7-11-6-10 26-12 26-12 32 13c18 7 49 16 70 20l38 6 2 10 2 10-37 3-38 3v37l14 5c8 3 23 3 34 0l20-5 6 11 7 11-26 10c-14 6-27 10-28 9-1 0-24-9-50-20z"/></g><g fill="#9e89e5" transform="matrix(.1 0 0 -.1 0 50)"><path d="M0 250V0h500v500H0V250zm339 180c47-24 85-67 101-116l12-36-4-50-5-49-29-41-29-41-40-21-40-21H195l-40 21-40 21-28 39-27 39-7 52-6 53 17 43 16 44 28 25c15 14 41 33 57 41l30 16 53 1h53l38-20zm-46-55c-40-57-65-85-78-85h-13l2 33 1 32-27 3-28 3v-10c0-6 7-11 15-11h15v-58l15-12 16-13 23 11 24 11 18 30 18 30 30 3 31 3v50l-22 3-21 3-19-26zm47-5c0-5-7-10-16-10h-15l6 10c3 6 10 10 16 10 5 0 9-4 9-10zm-98-121c2-6 8-10 13-10s11 4 13 10l4 11h-34l4-11zm-1-45-34-15-25 6-24 6 4-13 5-13 37-3 37-3-3-22-3-22-37 1-38 1v-8c0-5 9-13 19-19l20-10 52 20 51 21 20-7 20-6-4 13-5 14-37-1-36-1v47l25 6c14 3 32 3 41 0l16-6-4 12-5 13-29 2-29 2-34-15z"/></g><g fill="#4d529e" transform="matrix(.1 0 0 -.1 0 50)"><path d="M0 250V0h500v500H0V250zm343 184c61-31 92-72 108-144l8-34-10-46-10-47-31-38-32-38-40-18-41-19h-86l-37 15c-47 20-79 50-103 97l-19 37v105l21 43 21 43 30 22c17 12 47 27 67 35l36 13 43-5c23-2 57-12 75-21zm-64-84c-17-28-40-55-50-61l-19-10-5 13c-3 8-4 25-3 38l3 25-22 3-23 3v-10c0-6 6-11 14-11h14l-2-32-1-33 26-3 27-3 31 38 31 37 27 1h28l3 19 4 19-14 8c-7 5-19 9-26 9h-12l-31-50zm61 20c0-5-7-10-16-10h-15l6 10c3 6 10 10 16 10 5 0 9-4 9-10zm-90-120c0-5 5-10 10-10 6 0 10 5 10 10 0 6-4 10-10 10-5 0-10-4-10-10zm0-46-35-15-27 5-28 6v-10c0-12 46-24 65-16l15 5v-59l-17-2c-10 0-29 0-41 1l-24 2 7-10c9-16 50-13 93 4l37 16 22-6 23-5v9c0 14-29 22-57 15l-25-7 4 29 3 29 38 3 37 3-5 10c-9 13-45 10-85-7z"/></g><g fill="#6d07ff" transform="matrix(.1 0 0 -.1 0 50)"><path d="m2 323 3-178 25-3 25-4 18-19c28-29 28-23 2 23l-24 43-7 41-6 40 12 42 11 42 31 36c17 19 48 44 69 55l38 19h102l37-19c48-25 87-66 106-113l16-37v-82l-15-36c-9-21-23-45-32-55l-16-18h11c6 0 16 9 22 20l11 20h59v360H0l2-177zm277 27c-17-28-40-55-50-61l-19-10-5 13c-3 8-4 25-3 38l3 25-22 3-23 3v-10c0-6 6-11 14-11h14l-2-32-1-33 26-3 27-3 31 38 31 37 27 1h28l3 19 4 19-14 8c-7 5-19 9-26 9h-12l-31-50zm61 20c0-5-7-10-16-10h-15l6 10c3 6 10 10 16 10 5 0 9-4 9-10zm-90-120c0-5 5-10 10-10 6 0 10 5 10 10 0 6-4 10-10 10-5 0-10-4-10-10zm0-46-35-15-27 5-28 6v-10c0-12 46-24 65-16l15 5v-59l-17-2c-10 0-29 0-41 1l-24 2 7-10c9-16 50-13 93 4l37 16 22-6 23-5v9c0 14-29 22-57 15l-25-7 4 29 3 29 38 3 37 3-5 10c-9 13-45 10-85-7zM198 43c7-3 16-2 19 1 4 3-2 6-13 5l-19-1 13-5zm90 0c7-3 16-2 19 1 4 3-2 6-13 5l-19-1 13-5z"/></g><g fill="#272563" transform="matrix(.1 0 0 -.1 0 50)"><path d="m2 323 3-178 25-3 25-4 18-19c28-29 28-23 2 23l-24 43-7 41-6 40 12 42 11 42 31 36c17 19 48 44 69 55l38 19h102l37-19c48-25 87-66 106-113l16-37v-82l-15-36c-9-21-23-45-32-55l-16-18h11c6 0 16 9 22 20l11 20h59v360H0l2-177zM198 43c7-3 16-2 19 1 4 3-2 6-13 5l-19-1 13-5zm90 0c7-3 16-2 19 1 4 3-2 6-13 5l-19-1 13-5z"/></g></g></svg>