<?xml version="1.0" standalone="no"?>
<!DOCTYPE svg PUBLIC "-//W3C//DTD SVG 20010904//EN"
 "http://www.w3.org/TR/2001/REC-SVG-20010904/DTD/svg10.dtd">
<svg version="1.0" xmlns="http://www.w3.org/2000/svg"
 width="860.000000pt" height="860.000000pt" viewBox="0 0 860.000000 860.000000"
 preserveAspectRatio="xMidYMid meet">
<metadata>
Created by potrace 1.14, written by Peter Selinger 2001-2017
</metadata>
<g transform="translate(0.000000,860.000000) scale(0.100000,-0.100000)"
fill="#000000" stroke="none">
<path d="M3358 8595 c-3 -3 -14 -7 -24 -9 -11 -3 -32 -10 -49 -17 -51 -21 -83
-21 -155 2 -63 19 -107 21 -160 7 -33 -9 -108 -48 -120 -63 -7 -8 -18 -15 -24
-15 -6 0 -24 -7 -40 -15 -15 -8 -32 -13 -36 -10 -5 3 -11 1 -15 -5 -3 -5 -13
-10 -22 -10 -19 0 -163 -69 -181 -87 -7 -7 -16 -13 -20 -13 -4 0 -29 -20 -57
-45 -27 -24 -53 -45 -56 -45 -4 0 -9 -10 -13 -22 -8 -34 -95 -128 -117 -128
-10 0 -19 -4 -19 -10 0 -5 -4 -10 -10 -10 -11 0 -111 -63 -131 -82 -8 -8 -57
-46 -109 -85 -189 -143 -207 -158 -234 -195 -37 -51 -44 -122 -15 -146 46 -37
51 -45 45 -73 -3 -15 -19 -48 -36 -75 -37 -60 -39 -97 -4 -129 15 -14 30 -23
34 -20 9 6 56 -39 88 -83 24 -33 28 -47 12 -37 -14 9 -12 -7 3 -30 20 -28 45
-103 52 -150 15 -106 58 -161 150 -192 67 -22 238 -21 370 1 17 3 47 8 68 11
83 11 109 17 135 31 24 12 29 11 54 -13 34 -33 70 -105 63 -125 -8 -21 -261
-102 -350 -112 -22 -3 -49 -7 -60 -9 -11 -2 -42 -8 -70 -12 -49 -8 -57 -10
-72 -15 -5 -1 -11 -2 -15 -1 -13 1 -78 -29 -77 -37 0 -4 19 -23 42 -42 23 -19
69 -66 102 -103 33 -38 66 -75 73 -82 6 -8 12 -18 12 -24 0 -6 3 -11 8 -11 4
0 19 -21 32 -47 14 -27 30 -51 35 -55 6 -4 6 -8 1 -8 -5 0 -4 -6 2 -12 24 -30
174 -424 170 -447 -1 -3 2 -13 5 -21 10 -25 54 -189 82 -305 23 -98 32 -137
41 -170 5 -23 15 -72 20 -100 3 -16 10 -48 16 -70 6 -22 12 -49 14 -60 1 -11
7 -37 12 -57 6 -21 7 -38 4 -38 -3 0 -1 -5 6 -12 7 -7 12 -24 12 -38 0 -15 3
-30 7 -34 4 -3 8 -13 9 -20 1 -7 17 -60 35 -117 18 -57 34 -106 34 -109 7 -29
27 -98 32 -110 3 -8 5 -19 4 -24 -1 -4 4 -14 10 -22 7 -8 12 -27 13 -42 1 -15
4 -31 8 -37 11 -18 22 -109 21 -167 -2 -90 -13 -107 -298 -473 -9 -11 -22 -29
-30 -40 -162 -220 -320 -431 -327 -433 -4 -2 -8 -8 -8 -14 0 -6 -12 -25 -27
-43 -16 -18 -37 -44 -47 -59 -11 -15 -28 -37 -39 -49 -45 -52 -49 -61 -61
-150 -4 -26 -11 -71 -17 -100 -6 -29 -13 -65 -16 -82 -3 -16 -6 -34 -8 -40 -3
-17 -16 -79 -20 -100 -2 -11 -4 -20 -6 -20 -1 0 -3 -13 -4 -30 -2 -16 -7 -57
-11 -90 -9 -71 -9 -193 0 -250 24 -147 85 -267 243 -482 29 -39 50 -74 45 -76
-4 -2 -29 -3 -57 -2 -48 2 -242 9 -570 21 -82 3 -216 7 -297 9 -81 1 -151 6
-157 10 -6 3 -11 1 -11 -5 0 -6 -5 -8 -12 -4 -6 4 -95 9 -197 10 -232 4 -599
13 -751 18 -167 6 -234 -24 -209 -93 8 -19 12 -21 24 -11 11 9 20 8 42 -7 23
-16 85 -45 103 -49 3 0 18 -4 33 -9 l28 -8 -51 -29 c-29 -16 -71 -48 -94 -71
-38 -39 -95 -124 -100 -151 -1 -6 -8 -37 -15 -69 -10 -47 -11 -282 -1 -282 1
0 3 -16 5 -35 1 -19 6 -48 9 -65 4 -16 9 -43 12 -60 10 -55 64 -182 103 -241
41 -64 142 -174 160 -174 6 0 11 -4 11 -10 0 -5 17 -19 38 -30 20 -12 60 -34
87 -50 84 -48 294 -128 384 -145 9 -2 18 -4 21 -6 3 -1 10 -3 15 -4 6 -2 12
-4 15 -5 12 -4 100 -21 135 -25 17 -2 48 -6 70 -10 168 -27 613 -27 880 0 22
2 69 7 105 10 107 9 152 14 205 19 119 13 187 19 360 31 85 6 356 17 435 17
41 1 118 -6 170 -15 52 -9 124 -19 160 -22 36 -3 76 -8 90 -10 14 -3 63 -7
110 -10 47 -3 85 -5 85 -6 0 -2 37 -4 192 -12 50 -3 96 -8 102 -11 5 -4 12 -2
15 3 4 5 19 6 34 2 47 -12 593 -2 762 14 25 3 70 7 100 10 30 3 71 7 90 10 76
10 229 16 535 20 309 4 548 9 950 20 180 5 490 13 781 19 72 2 137 6 143 10 6
4 11 2 11 -4 0 -6 5 -8 11 -5 17 11 521 18 768 11 123 -3 188 8 224 38 24 19
27 30 32 101 8 138 17 249 21 285 18 142 25 448 12 530 -19 126 -80 243 -175
336 l-32 32 38 16 c57 26 79 79 72 171 -2 33 -46 75 -98 94 -36 13 -86 18
-198 20 -346 7 -433 10 -480 20 -56 12 -148 24 -182 25 -13 0 -23 2 -23 6 0 7
-255 4 -275 -3 -8 -4 -15 -2 -15 4 0 6 -4 8 -9 4 -6 -3 -52 -8 -103 -11 -145
-9 -188 -12 -253 -19 -33 -4 -180 -8 -327 -9 -234 -1 -292 2 -260 16 12 5 65
88 89 138 26 57 40 109 48 180 8 73 15 130 19 160 15 98 20 157 20 240 0 79
-8 185 -14 185 -2 0 -5 14 -13 60 -3 17 -13 51 -21 78 -8 26 -12 47 -9 47 3 0
0 7 -7 15 -7 8 -10 15 -7 15 3 0 1 15 -4 33 -13 41 -22 132 -23 224 -1 40 -3
73 -6 73 -3 0 -5 43 -5 96 0 53 -3 98 -8 101 -4 2 -5 8 -3 12 13 20 -51 209
-81 239 -7 7 -13 17 -13 22 0 16 -187 211 -290 301 -120 105 -345 259 -388
265 -7 1 -20 8 -28 15 -19 16 -126 69 -140 69 -5 0 -15 5 -22 12 -6 6 -17 13
-24 15 -7 2 -44 11 -83 22 -72 20 -202 21 -269 3 -34 -10 -196 -8 -236 3 -45
11 -172 32 -208 34 -6 1 -28 18 -47 38 -26 27 -32 40 -24 49 24 29 12 153 -26
265 -14 41 -27 81 -29 90 -3 9 -14 36 -25 60 -12 23 -21 49 -21 56 0 7 -4 13
-8 13 -5 0 -9 6 -10 13 0 6 -13 46 -27 87 -25 69 -38 125 -51 210 -3 19 -7 46
-10 60 -2 14 -6 45 -9 70 -6 48 -21 155 -29 205 -3 17 -10 50 -16 75 -7 25
-14 56 -16 70 -3 14 -9 27 -15 28 -5 2 -9 10 -9 19 0 13 -29 74 -142 298 -80
161 -82 167 -84 364 -1 168 -9 226 -34 256 -21 25 -19 65 4 77 11 7 26 13 33
14 35 6 88 29 109 47 37 32 9 64 -71 84 -65 15 -187 7 -321 -22 l-31 -7 2 61
c1 34 5 64 8 67 3 3 22 0 41 -7 47 -17 96 -4 224 57 51 24 97 44 102 44 6 0
10 3 10 8 0 4 12 13 28 20 33 15 76 74 89 122 10 39 6 73 -8 65 -5 -4 -9 1 -9
9 0 8 9 18 20 21 11 3 20 10 20 15 0 5 8 11 18 14 18 6 81 64 128 117 56 65
83 179 53 228 -22 36 -72 61 -137 67 -55 6 -60 9 -55 28 22 89 26 140 13 175
-12 35 -54 80 -75 82 -5 0 -19 2 -29 4 -106 20 -132 56 -105 145 20 68 19 88
-6 118 -30 36 -89 53 -175 51 -111 -2 -176 17 -226 68 -22 21 -52 44 -67 51
-29 12 -70 16 -79 7z m-388 -69 c0 -3 -4 -8 -10 -11 -5 -3 -10 -1 -10 4 0 6 5
11 10 11 6 0 10 -2 10 -4z m1020 -446 c11 -16 23 -43 26 -62 5 -32 4 -31 -10
7 -9 22 -30 52 -48 67 -28 23 -29 26 -10 21 12 -3 31 -18 42 -33z"/>
<path d="M2285 5639 c-20 -31 5 -223 42 -323 8 -23 17 -54 20 -71 3 -16 8 -32
12 -35 4 -3 13 -25 19 -50 7 -25 17 -54 22 -65 5 -11 16 -44 26 -74 45 -145
166 -173 228 -54 54 106 -6 259 -198 498 -44 55 -84 105 -88 110 -60 77 -70
86 -83 64z"/>
<path d="M4442 5617 c-7 -9 -9 -82 -2 -82 2 0 7 -33 14 -95 11 -91 16 -124 23
-145 4 -11 8 -23 9 -27 1 -5 2 -9 4 -10 1 -2 3 -12 5 -23 2 -11 14 -28 25 -37
17 -14 25 -15 41 -5 10 6 19 16 19 20 0 5 6 15 14 23 10 10 14 32 12 77 -4 77
-6 86 -46 172 -51 112 -95 161 -118 132z"/>
<path d="M4995 5344 c-8 -13 -15 -28 -15 -33 0 -5 -3 -11 -7 -13 -12 -5 -95
-168 -86 -168 4 0 2 -5 -4 -11 -13 -13 2 -76 25 -104 52 -61 143 -46 185 30
16 30 17 113 3 180 -25 119 -68 170 -101 119z"/>
<path d="M2004 5251 c4 -42 15 -107 30 -187 17 -89 72 -217 109 -256 54 -58
139 -4 139 88 0 28 -63 177 -82 194 -10 9 -40 60 -39 66 0 4 -3 10 -8 13 -5 3
-16 16 -25 29 -33 49 -90 102 -109 102 -18 0 -19 -5 -15 -49z"/>
<path d="M5853 4530 c-34 -14 -19 -34 40 -55 68 -24 134 -57 193 -97 64 -42
87 -62 195 -160 118 -106 182 -131 246 -93 37 22 72 81 68 115 -2 14 -4 30 -4
36 -2 27 -91 97 -175 138 -88 43 -224 89 -296 100 -19 3 -46 8 -60 11 -48 12
-185 15 -207 5z"/>
<path d="M2305 3703 c-38 -25 -72 -49 -75 -52 -3 -4 -22 -17 -42 -31 -21 -14
-38 -28 -38 -32 0 -5 -5 -8 -12 -8 -7 0 -21 -9 -33 -20 -113 -109 -173 -179
-181 -210 0 -3 -5 -14 -9 -25 -27 -61 3 -178 51 -195 29 -11 90 39 144 119 24
37 70 100 101 141 141 187 211 318 188 346 -16 19 -15 19 -94 -33z"/>
</g>
</svg>
