<svg xmlns="http://www.w3.org/2000/svg" version="1.1" xmlns:xlink="http://www.w3.org/1999/xlink" xmlns:svgjs="http://svgjs.com/svgjs" width="393" height="382"><svg xmlns:dc="http://purl.org/dc/elements/1.1/" xmlns:cc="http://creativecommons.org/ns#" xmlns:rdf="http://www.w3.org/1999/02/22-rdf-syntax-ns#" xmlns:svg="http://www.w3.org/2000/svg" xmlns="http://www.w3.org/2000/svg" xmlns:sodipodi="http://sodipodi.sourceforge.net/DTD/sodipodi-0.dtd" xmlns:inkscape="http://www.inkscape.org/namespaces/inkscape" version="1.1" width="393" height="382" viewBox="-3 -3 393 326" id="SvgjsSvg1051" inkscape:version="0.91 r13725" sodipodi:docname="Menorah-01-blue.svg">
  <metadata id="SvgjsMetadata1050">
    <rdf:rdf>
      <cc:work rdf:about="">
        <dc:format>image/svg+xml</dc:format>
        <dc:type rdf:resource="http://purl.org/dc/dcmitype/StillImage"></dc:type>
        <dc:title>Menorah (blue)</dc:title>
        <dc:source>Frater5 (https://commons.wikimedia.org/wiki/File:Menorah.svg)</dc:source>
        <dc:publisher>
          <cc:agent>
            <dc:title>https://yahananxie.com</dc:title>
          </cc:agent>
        </dc:publisher>
        <dc:rights>
          <cc:agent>
            <dc:title>Public Domain</dc:title>
          </cc:agent>
        </dc:rights>
        <dc:date>2016-02-12</dc:date>
        <dc:creator>
          <cc:agent>
            <dc:title>JC John Sese Cuneta</dc:title>
          </cc:agent>
        </dc:creator>
        <dc:subject>
          <rdf:bag>
            <rdf:li>Menorah</rdf:li>
            <rdf:li>Messianic</rdf:li>
            <rdf:li>Natsari</rdf:li>
            <rdf:li>Christianity</rdf:li>
            <rdf:li>Faith</rdf:li>
            <rdf:li>Religion</rdf:li>
            <rdf:li>Judaism</rdf:li>
          </rdf:bag>
        </dc:subject>
        <dc:contributor>
          <cc:agent>
            <dc:title>Blue Menorah by JC John Sese Cuneta (2016-02-12; https://yahananxie.com)</dc:title>
          </cc:agent>
        </dc:contributor>
        <dc:description>Menorah in blue</dc:description>
        <cc:license rdf:resource="http://creativecommons.org/publicdomain/zero/1.0/"></cc:license>
      </cc:work>
      <cc:license rdf:about="http://creativecommons.org/publicdomain/zero/1.0/">
        <cc:permits rdf:resource="http://creativecommons.org/ns#Reproduction"></cc:permits>
        <cc:permits rdf:resource="http://creativecommons.org/ns#Distribution"></cc:permits>
        <cc:permits rdf:resource="http://creativecommons.org/ns#DerivativeWorks"></cc:permits>
      </cc:license>
    </rdf:rdf>
  </metadata>
  <defs id="SvgjsDefs1049"></defs>
  <sodipodi:namedview pagecolor="#ffffff" bordercolor="#666666" borderopacity="1" objecttolerance="10" gridtolerance="10" guidetolerance="10" inkscape:pageopacity="0" inkscape:pageshadow="2" inkscape:window-width="1024" inkscape:window-height="553" id="SvgjsSodipodi:namedview1048" showgrid="false" inkscape:zoom="1" inkscape:cx="409" inkscape:cy="192.77328" inkscape:window-x="-4" inkscape:window-y="24" inkscape:window-maximized="1" inkscape:current-layer="svg3336"></sodipodi:namedview>
  <title id="SvgjsTitle1047">Menorah (blue)</title>
  <g id="SvgjsG1046" transform="translate(0,28)">
    <path d="m 21.49994,-53.499 c 0,0 -19.9160036,22.98025 -17.255244,37.499999 C 5.8952286,-6.9942495 12.872325,-3.499 21.49994,-3.499 c 8.627633,0 15.604784,-3.4952495 17.25525,-12.500001 C 41.416641,-30.51875 21.49994,-53.499 21.49994,-53.499 Z" id="SvgjsPath1045" style="fill:#087bce" inkscape:connector-curvature="0"></path>
    <path inkscape:connector-curvature="0" style="fill:#ffffff" id="SvgjsPath1044" d="m 21.49997,-28.498996 c 0,0 -9.957999,11.490125 -8.627623,18.7499956 0.825267,4.502376 4.313815,6.2500004 8.627623,6.2500004 4.313816,0 7.802392,-1.7476244 8.627625,-6.2500004 C 31.45832,-17.008871 21.49997,-28.498996 21.49997,-28.498996 Z"></path>
  </g>
  <g transform="translate(51.731,30)" id="SvgjsG1043">
    <path inkscape:connector-curvature="0" style="fill:#087bce" id="SvgjsPath1042" d="m 21.49994,-53.499 c 0,0 -19.9160036,22.98025 -17.255244,37.499999 C 5.8952286,-6.9942495 12.872325,-3.499 21.49994,-3.499 c 8.627633,0 15.604784,-3.4952495 17.25525,-12.500001 C 41.416641,-30.51875 21.49994,-53.499 21.49994,-53.499 Z"></path>
    <path d="m 21.49997,-28.498996 c 0,0 -9.957999,11.490125 -8.627623,18.7499956 0.825267,4.502376 4.313815,6.2500004 8.627623,6.2500004 4.313816,0 7.802392,-1.7476244 8.627625,-6.2500004 C 31.45832,-17.008871 21.49997,-28.498996 21.49997,-28.498996 Z" id="SvgjsPath1041" style="fill:#ffffff" inkscape:connector-curvature="0"></path>
  </g>
  <g id="SvgjsG1040" transform="translate(105.166,29)">
    <path d="m 21.49994,-53.499 c 0,0 -19.9160036,22.98025 -17.255244,37.499999 C 5.8952286,-6.9942495 12.872325,-3.499 21.49994,-3.499 c 8.627633,0 15.604784,-3.4952495 17.25525,-12.500001 C 41.416641,-30.51875 21.49994,-53.499 21.49994,-53.499 Z" id="SvgjsPath1039" style="fill:#087bce" inkscape:connector-curvature="0"></path>
    <path inkscape:connector-curvature="0" style="fill:#ffffff" id="SvgjsPath1038" d="m 21.49997,-28.498996 c 0,0 -9.957999,11.490125 -8.627623,18.7499956 0.825267,4.502376 4.313815,6.2500004 8.627623,6.2500004 4.313816,0 7.802392,-1.7476244 8.627625,-6.2500004 C 31.45832,-17.008871 21.49997,-28.498996 21.49997,-28.498996 Z"></path>
  </g>
  <g transform="translate(172.246,28)" id="SvgjsG1037">
    <path inkscape:connector-curvature="0" style="fill:#087bce" id="SvgjsPath1036" d="m 21.49994,-53.499 c 0,0 -19.9160036,22.98025 -17.255244,37.499999 C 5.8952286,-6.9942495 12.872325,-3.499 21.49994,-3.499 c 8.627633,0 15.604784,-3.4952495 17.25525,-12.500001 C 41.416641,-30.51875 21.49994,-53.499 21.49994,-53.499 Z"></path>
    <path d="m 21.49997,-28.498996 c 0,0 -9.957999,11.490125 -8.627623,18.7499956 0.825267,4.502376 4.313815,6.2500004 8.627623,6.2500004 4.313816,0 7.802392,-1.7476244 8.627625,-6.2500004 C 31.45832,-17.008871 21.49997,-28.498996 21.49997,-28.498996 Z" id="SvgjsPath1035" style="fill:#ffffff" inkscape:connector-curvature="0"></path>
  </g>
  <g id="SvgjsG1034" transform="translate(237.62,28)">
    <path d="m 21.49994,-53.499 c 0,0 -19.9160036,22.98025 -17.255244,37.499999 C 5.8952286,-6.9942495 12.872325,-3.499 21.49994,-3.499 c 8.627633,0 15.604784,-3.4952495 17.25525,-12.500001 C 41.416641,-30.51875 21.49994,-53.499 21.49994,-53.499 Z" id="SvgjsPath1033" style="fill:#087bce" inkscape:connector-curvature="0"></path>
    <path inkscape:connector-curvature="0" style="fill:#ffffff" id="SvgjsPath1032" d="m 21.49997,-28.498996 c 0,0 -9.957999,11.490125 -8.627623,18.7499956 0.825267,4.502376 4.313815,6.2500004 8.627623,6.2500004 4.313816,0 7.802392,-1.7476244 8.627625,-6.2500004 C 31.45832,-17.008871 21.49997,-28.498996 21.49997,-28.498996 Z"></path>
  </g>
  <g transform="translate(291.056,28)" id="SvgjsG1031">
    <path inkscape:connector-curvature="0" style="fill:#087bce" id="SvgjsPath1030" d="m 21.49994,-53.499 c 0,0 -19.9160036,22.98025 -17.255244,37.499999 C 5.8952286,-6.9942495 12.872325,-3.499 21.49994,-3.499 c 8.627633,0 15.604784,-3.4952495 17.25525,-12.500001 C 41.416641,-30.51875 21.49994,-53.499 21.49994,-53.499 Z"></path>
    <path d="m 21.49997,-28.498996 c 0,0 -9.957999,11.490125 -8.627623,18.7499956 0.825267,4.502376 4.313815,6.2500004 8.627623,6.2500004 4.313816,0 7.802392,-1.7476244 8.627625,-6.2500004 C 31.45832,-17.008871 21.49997,-28.498996 21.49997,-28.498996 Z" id="SvgjsPath1029" style="fill:#ffffff" inkscape:connector-curvature="0"></path>
  </g>
  <g id="SvgjsG1028" transform="translate(342.786,28)">
    <path d="m 21.49994,-53.499 c 0,0 -19.9160036,22.98025 -17.255244,37.499999 C 5.8952286,-6.9942495 12.872325,-3.499 21.49994,-3.499 c 8.627633,0 15.604784,-3.4952495 17.25525,-12.500001 C 41.416641,-30.51875 21.49994,-53.499 21.49994,-53.499 Z" id="SvgjsPath1027" style="fill:#087bce" inkscape:connector-curvature="0"></path>
    <path inkscape:connector-curvature="0" style="fill:#ffffff" id="SvgjsPath1026" d="m 21.49997,-28.498996 c 0,0 -9.957999,11.490125 -8.627623,18.7499956 0.825267,4.502376 4.313815,6.2500004 8.627623,6.2500004 4.313816,0 7.802392,-1.7476244 8.627625,-6.2500004 C 31.45832,-17.008871 21.49997,-28.498996 21.49997,-28.498996 Z"></path>
  </g>
  <g id="SvgjsG1025" style="fill:#087bce;stroke:none" transform="translate(0,28)">
    <path d="M 12.628,18.573 C 12.628,13.621 0,3.509 0,0 c 3.793,0 38.342,0 43.352,0 0,2.89 -12.064,13.623 -12.064,18.573 -1.885,0 -18.66,0 -18.66,0 z" id="SvgjsPath1024" inkscape:connector-curvature="0"></path>
    <path d="M 12.628,40.501 C 12.628,35.549 0,25.438 0,21.928 c 3.793,0 38.342,0 43.352,0 0,2.89 -12.064,13.621 -12.064,18.573 -1.885,0 -18.66,0 -18.66,0 z" id="SvgjsPath1023" inkscape:connector-curvature="0"></path>
  </g>
  <g id="SvgjsG1022" style="fill:#087bce;stroke:none" transform="translate(0,28)">
    <path d="M 64.359,18.573 C 64.359,13.621 51.731,3.509 51.731,0 c 3.793,0 38.343,0 43.352,0 0,2.89 -12.064,13.623 -12.064,18.573 -1.885,0 -18.66,0 -18.66,0 z" id="SvgjsPath1021" inkscape:connector-curvature="0"></path>
    <path d="m 64.359,40.501 c 0,-4.952 -12.628,-15.063 -12.628,-18.573 3.793,0 38.343,0 43.352,0 0,2.89 -12.064,13.621 -12.064,18.573 -1.885,0 -18.66,0 -18.66,0 z" id="SvgjsPath1020" inkscape:connector-curvature="0"></path>
  </g>
  <g id="SvgjsG1019" style="fill:#087bce;stroke:none" transform="translate(0,28)">
    <path d="m 117.795,18.573 c 0,-4.952 -12.629,-15.064 -12.629,-18.573 3.793,0 38.343,0 43.353,0 0,2.89 -12.064,13.623 -12.064,18.573 -1.885,0 -18.66,0 -18.66,0 z" id="SvgjsPath1018" inkscape:connector-curvature="0"></path>
    <path d="m 117.795,40.501 c 0,-4.952 -12.629,-15.063 -12.629,-18.573 3.793,0 38.343,0 43.353,0 0,2.89 -12.064,13.621 -12.064,18.573 -1.885,0 -18.66,0 -18.66,0 z" id="SvgjsPath1017" inkscape:connector-curvature="0"></path>
  </g>
  <g id="SvgjsG1016" style="fill:#087bce;stroke:none" transform="translate(0,28)">
    <path d="m 184.876,18.573 c 0,-4.952 -12.63,-15.064 -12.63,-18.573 3.794,0 38.344,0 43.354,0 0,2.89 -12.064,13.623 -12.064,18.573 -1.884,0 -18.66,0 -18.66,0 z" id="SvgjsPath1015" inkscape:connector-curvature="0"></path>
    <path d="m 184.876,40.501 c 0,-4.952 -12.63,-15.063 -12.63,-18.573 3.794,0 38.344,0 43.354,0 0,2.89 -12.064,13.621 -12.064,18.573 -1.884,0 -18.66,0 -18.66,0 z" id="SvgjsPath1014" inkscape:connector-curvature="0"></path>
  </g>
  <g id="SvgjsG1013" style="fill:#087bce;stroke:none" transform="translate(0,28)">
    <path d="M 250.25,18.573 C 250.25,13.621 237.62,3.509 237.62,0 c 3.794,0 38.344,0 43.354,0 0,2.89 -12.064,13.623 -12.064,18.573 -1.885,0 -18.66,0 -18.66,0 z" id="SvgjsPath1012" inkscape:connector-curvature="0"></path>
    <path d="m 250.25,40.501 c 0,-4.952 -12.63,-15.063 -12.63,-18.573 3.794,0 38.344,0 43.354,0 0,2.89 -12.064,13.621 -12.064,18.573 -1.885,0 -18.66,0 -18.66,0 z" id="SvgjsPath1011" inkscape:connector-curvature="0"></path>
  </g>
  <g id="SvgjsG1010" style="fill:#087bce;stroke:none" transform="translate(0,28)">
    <path d="m 303.686,18.573 c 0,-4.952 -12.63,-15.064 -12.63,-18.573 3.794,0 38.344,0 43.354,0 0,2.89 -12.064,13.623 -12.064,18.573 -1.885,0 -18.66,0 -18.66,0 z" id="SvgjsPath1009" inkscape:connector-curvature="0"></path>
    <path d="m 303.686,40.501 c 0,-4.952 -12.63,-15.063 -12.63,-18.573 3.794,0 38.344,0 43.354,0 0,2.89 -12.064,13.621 -12.064,18.573 -1.885,0 -18.66,0 -18.66,0 z" id="SvgjsPath1008" inkscape:connector-curvature="0"></path>
  </g>
  <g id="SvgjsG1007" style="fill:#087bce;stroke:none" transform="translate(0,28)">
    <path d="m 355.416,18.573 c 0,-4.952 -12.63,-15.064 -12.63,-18.573 3.795,0 38.344,0 43.354,0 0,2.89 -12.064,13.623 -12.064,18.573 -1.885,0 -18.66,0 -18.66,0 z" id="SvgjsPath1006" inkscape:connector-curvature="0"></path>
    <path d="m 355.416,40.501 c 0,-4.952 -12.63,-15.063 -12.63,-18.573 3.795,0 38.344,0 43.354,0 0,2.89 -12.064,13.621 -12.064,18.573 -1.885,0 -18.66,0 -18.66,0 z" id="SvgjsPath1005" inkscape:connector-curvature="0"></path>
  </g>
  <path d="m 21.688,71.414 c 0,94.816 76.863,171.676 171.68,171.676 94.815,0 171.683,-76.86 171.683,-171.676" id="SvgjsPath1004" inkscape:connector-curvature="0" style="fill:none;stroke:#087bce;stroke-width:17.64819908"></path>
  <path d="m 73.419,71.414 c 0,66.247 53.703,119.948 119.949,119.948 66.247,0 119.95,-53.702 119.95,-119.948" id="SvgjsPath1003" inkscape:connector-curvature="0" style="fill:none;stroke:#087bce;stroke-width:17.64819908"></path>
  <path d="m 126.855,71.414 c 0,36.734 29.778,66.512 66.513,66.512 36.735,0 66.514,-29.778 66.514,-66.512" id="SvgjsPath1002" inkscape:connector-curvature="0" style="fill:none;stroke:#087bce;stroke-width:17.64819908"></path>
  <line x1="193.368" y1="71.414001" x2="193.368" y2="338.92599" id="SvgjsLine1001" style="fill:none;stroke:#087bce;stroke-width:17.64819908"></line>
  <polygon points="286.446,307.414 286.446,319.182 99.716,319.182 99.716,319.182 99.716,307.414 193.342,286.824 " id="SvgjsPolygon1000" style="fill:#087bce;stroke:none" transform="translate(0,28)"></polygon>
</svg><style>@media (prefers-color-scheme: light) { :root { filter: none; } }
</style></svg>